<?xml version="1.0" encoding="UTF-8"?>
<svg xmlns="http://www.w3.org/2000/svg" xmlns:xlink="http://www.w3.org/1999/xlink" width="522.99pt" height="199.96pt" viewBox="0 0 522.99 199.96" version="1.1">
<defs>
<clipPath id="clip1">
  <path d="M 507 132 L 522.988281 132 L 522.988281 199 L 507 199 Z M 507 132 "/>
</clipPath>
<clipPath id="clip2">
  <path d="M 339 131 L 394 131 L 394 199.960938 L 339 199.960938 Z M 339 131 "/>
</clipPath>
<clipPath id="clip3">
  <path d="M 265 95 L 331 95 L 331 199.960938 L 265 199.960938 Z M 265 95 "/>
</clipPath>
</defs>
<g id="surface1">
<path style=" stroke:none;fill-rule:nonzero;fill:rgb(41.999817%,18.798828%,57.299805%);fill-opacity:1;" d="M 217.097656 55.769531 C 267.515625 41.742188 303.871094 38.347656 308.144531 49.199219 C 312.433594 60.078125 286.050781 80.464844 242.523438 105.859375 C 243.722656 113.792969 243.75 122.035156 242.453125 130.375 C 239.125 151.765625 227.667969 170.570313 210.1875 183.324219 C 192.699219 196.105469 171.304688 201.300781 149.90625 197.972656 C 128.652344 194.65625 109.882813 183.121094 97.328125 166.199219 C 51.976563 177.929688 19.578125 183.996094 0 186.550781 C 126.902344 152.492188 213.300781 98.316406 225.546875 91.429688 C 217.433594 63.363281 186.566406 32.445313 134.59375 41.765625 C 147.390625 37.078125 161.3125 35.714844 174.847656 37.828125 C 202.921875 42.199219 225.40625 60.578125 236.292969 84.738281 C 256.121094 71.867188 267.027344 61.433594 264.84375 55.894531 C 262.375 49.621094 244.519531 50.035156 217.097656 55.769531 Z M 228.398438 113.339844 C 185.402344 137.089844 154.3125 148.152344 129.089844 156.070313 C 144.574219 170.925781 169.6875 179.292969 195.648438 165.726563 C 210.5 157.976563 224.199219 140.949219 227.265625 124.488281 C 227.925781 120.945313 228.3125 117.203125 228.398438 113.339844 "/>
<path style=" stroke:none;fill-rule:nonzero;fill:rgb(0%,8.999634%,13.299561%);fill-opacity:1;" d="M 404.011719 198.125 L 419.773438 198.125 L 419.773438 132.597656 L 404.011719 132.597656 Z M 404.011719 198.125 "/>
<path style=" stroke:none;fill-rule:nonzero;fill:rgb(0%,8.999634%,13.299561%);fill-opacity:1;" d="M 468.148438 158.800781 L 468.148438 198.269531 L 452.292969 198.269531 L 452.292969 129.90625 C 452.292969 117.703125 452.765625 110.570313 458.445313 105.242188 C 464.199219 99.847656 472.070313 99.222656 487.417969 99.222656 L 504.617188 99.226563 L 504.617188 113.523438 C 502.964844 113.519531 494.566406 113.503906 488.785156 113.503906 C 478.847656 113.503906 474.644531 113.890625 471.453125 117.148438 C 469.054688 119.59375 468.148438 123.558594 468.148438 129.664063 L 468.148438 143.015625 L 497.042969 143.015625 L 497.042969 158.800781 L 468.148438 158.800781 "/>
<g clip-path="url(#clip1)" clip-rule="nonzero">
<path style=" stroke:none;fill-rule:nonzero;fill:rgb(0%,8.999634%,13.299561%);fill-opacity:1;" d="M 507.234375 198.125 L 522.996094 198.125 L 522.996094 132.597656 L 507.234375 132.597656 Z M 507.234375 198.125 "/>
</g>
<g clip-path="url(#clip2)" clip-rule="nonzero">
<path style=" stroke:none;fill-rule:nonzero;fill:rgb(0%,8.999634%,13.299561%);fill-opacity:1;" d="M 339.027344 166.121094 C 339.027344 185.046875 354.769531 199.871094 374.867188 199.871094 C 381.773438 199.871094 387.605469 198.523438 393.21875 195.636719 L 393.871094 195.300781 L 393.871094 176.699219 L 391.792969 178.925781 C 386.953125 184.113281 381.304688 186.355469 375.003906 186.355469 C 362.546875 186.355469 353.847656 177.816406 353.847656 165.59375 C 353.847656 154.480469 363.15625 145.09375 374.175781 145.09375 C 381.128906 145.09375 386.890625 147.226563 391.785156 152.570313 L 393.871094 154.847656 L 393.871094 136.175781 L 393.257813 135.832031 C 388.421875 133.128906 381.972656 131.578125 375.558594 131.578125 C 354.730469 131.578125 339.027344 146.429688 339.027344 166.121094 "/>
</g>
<g clip-path="url(#clip3)" clip-rule="nonzero">
<path style=" stroke:none;fill-rule:nonzero;fill:rgb(0%,8.999634%,13.299561%);fill-opacity:1;" d="M 298.054688 185.300781 C 307.3125 185.300781 315.519531 178.230469 315.519531 168.855469 C 315.519531 163.980469 313.664063 160.835938 310.800781 158.359375 C 309.320313 157.078125 307.546875 155.960938 305.546875 154.894531 C 303.503906 153.804688 301.335938 152.828125 299.144531 151.824219 L 293.265625 149.269531 C 282.035156 144.167969 270.910156 137.851563 270.910156 122.460938 C 270.910156 105.890625 284.957031 95.574219 300.226563 95.574219 C 311.835938 95.574219 321.699219 101.554688 327.210938 111.757813 L 328.246094 113.671875 L 315.785156 121.671875 L 314.554688 119.542969 C 311.003906 113.390625 307.078125 110.234375 299.96875 110.234375 C 292.46875 110.234375 286.339844 115.539063 286.339844 122.84375 C 286.339844 126.046875 287.941406 128.476563 290.554688 130.566406 C 293.238281 132.710938 296.710938 134.285156 300.027344 135.78125 L 306.410156 138.589844 C 318.949219 144.089844 330.945313 150.90625 330.945313 167.835938 C 330.945313 186.058594 316.289063 199.960938 298.308594 199.960938 C 281.671875 199.960938 269.253906 189.148438 265.972656 173.160156 L 265.585938 171.054688 L 280.695313 166.769531 L 281.074219 169.421875 C 282.347656 178.332031 289.082031 185.300781 298.054688 185.300781 "/>
</g>
<path style=" stroke:none;fill-rule:nonzero;fill:rgb(41.999817%,18.798828%,57.299805%);fill-opacity:1;" d="M 241.582031 14.117188 C 241.582031 21.910156 235.261719 28.230469 227.464844 28.230469 C 219.667969 28.230469 213.347656 21.910156 213.347656 14.117188 C 213.347656 6.320313 219.667969 0 227.464844 0 C 235.261719 0 241.582031 6.320313 241.582031 14.117188 "/>
</g>
</svg>
